<?xml version="1.0" standalone="no"?>
<!DOCTYPE svg PUBLIC "-//W3C//DTD SVG 20010904//EN"
 "http://www.w3.org/TR/2001/REC-SVG-20010904/DTD/svg10.dtd">
<svg version="1.0" xmlns="http://www.w3.org/2000/svg"
 width="256.000000pt" height="256.000000pt" viewBox="0 0 256.000000 256.000000"
 preserveAspectRatio="xMidYMid meet">
<metadata>
Created by potrace 1.16, written by Peter Selinger 2001-2019
</metadata>
<g transform="translate(0.000000,256.000000) scale(0.100000,-0.100000)"
fill="#000000" stroke="none">
<path d="M220 2168 c-25 -13 -55 -38 -67 -57 l-23 -34 0 -674 c0 -755 -3 -721
71 -770 25 -17 57 -27 98 -30 l61 -6 0 -46 c0 -70 35 -131 90 -158 l44 -23
901 0 901 0 44 23 c24 12 53 35 64 50 21 28 21 40 24 708 2 619 1 683 -14 715
-25 52 -80 85 -153 91 l-61 6 0 51 c0 70 -32 124 -90 154 l-44 22 -901 0 -901
0 -44 -22z m1837 -78 c17 -6 35 -22 42 -36 8 -18 11 -170 11 -517 l0 -491
-173 172 c-100 99 -181 172 -192 172 -11 0 -87 -68 -180 -160 l-160 -160 -280
280 c-215 215 -286 280 -305 280 -19 0 -91 -66 -312 -287 l-288 -288 0 493 c0
330 4 500 11 513 6 11 20 24 32 29 33 13 1757 13 1794 0z m263 -252 c20 -21
20 -31 20 -674 0 -627 -1 -653 -19 -675 l-19 -24 -889 -3 c-618 -1 -896 1
-914 9 -31 12 -49 47 -49 94 l0 35 798 0 c492 0 811 4 832 10 41 11 94 61 109
103 7 19 11 218 11 588 l0 559 50 0 c38 0 54 -5 70 -22z m-1085 -728 l410
-410 -692 0 -692 0 -21 22 c-17 18 -20 35 -20 107 l0 86 302 302 c167 167 303
303 303 303 0 0 185 -184 410 -410z m698 -18 l177 -178 0 -81 c0 -66 -4 -85
-21 -107 -20 -26 -21 -26 -167 -26 l-147 0 -150 150 -150 150 135 135 c74 74
137 135 140 135 3 0 85 -80 183 -178z"/>
<path d="M1510 1969 c-103 -31 -165 -140 -139 -244 22 -88 110 -155 202 -155
96 0 196 103 197 203 0 69 -48 150 -110 182 -36 19 -109 26 -150 14z m123
-109 c38 -30 52 -80 33 -123 -31 -74 -121 -94 -177 -38 -45 45 -38 120 15 163
29 24 97 23 129 -2z"/>
</g>
</svg>
