<?xml version="1.0" standalone="no"?>
<!DOCTYPE svg PUBLIC "-//W3C//DTD SVG 20010904//EN"
 "http://www.w3.org/TR/2001/REC-SVG-20010904/DTD/svg10.dtd">
<svg version="1.0" xmlns="http://www.w3.org/2000/svg"
 width="916.000000pt" height="980.000000pt" viewBox="0 0 916.000000 980.000000"
 preserveAspectRatio="xMidYMid meet">

<g transform="translate(0.000000,980.000000) scale(0.100000,-0.100000)"
fill="#000000" stroke="none">
<path d="M2297 9790 c-108 -28 -213 -113 -263 -215 l-29 -60 0 -670 0 -670 27
-57 c74 -159 249 -255 416 -228 131 22 256 119 304 238 l23 57 0 660 0 660
-31 65 c-63 134 -188 219 -332 226 -42 2 -94 -1 -115 -6z"/>
<path d="M6628 9781 c-31 -10 -72 -28 -92 -40 -56 -35 -133 -126 -158 -189
l-23 -57 -3 -629 c-2 -543 0 -636 13 -689 61 -237 325 -358 550 -252 71 34
142 107 179 185 l31 65 0 670 0 670 -28 56 c-66 136 -187 217 -333 225 -59 3
-93 0 -136 -15z"/>
<path d="M1362 9139 c-187 -22 -410 -90 -572 -176 -154 -81 -250 -152 -376
-277 -211 -212 -319 -407 -387 -698 l-21 -93 -4 -3145 c-2 -2172 0 -3189 8
-3289 16 -223 57 -383 146 -571 181 -382 514 -674 923 -810 246 -82 -89 -74
3441 -78 2237 -2 3174 0 3245 8 464 51 868 298 1131 690 153 230 232 467 254
761 8 100 10 1115 8 3284 -4 2898 -5 3146 -21 3222 -39 189 -105 349 -210 506
-76 114 -260 302 -376 382 -169 118 -402 218 -601 259 -78 16 -234 36 -282 36
l-27 0 -3 -517 c-4 -501 -5 -520 -26 -591 -81 -265 -260 -475 -497 -583 -132
-59 -205 -74 -375 -74 -132 0 -167 3 -234 23 -315 91 -555 337 -638 654 -20
79 -22 108 -25 586 l-4 502 -1274 0 -1274 0 -3 -507 c-4 -574 -5 -577 -89
-752 -199 -417 -674 -614 -1113 -461 -233 80 -445 286 -535 518 -57 149 -61
196 -61 723 l0 479 -27 -1 c-16 -1 -61 -5 -101 -10z m7116 -5296 l-3 -2418
-22 -80 c-13 -44 -45 -125 -72 -180 -111 -222 -301 -380 -551 -457 l-75 -23
-3140 -3 c-2829 -2 -3148 -1 -3219 13 -203 41 -381 147 -512 304 -66 79 -146
235 -177 346 l-22 80 -3 2418 -2 2417 3900 0 3900 0 -2 -2417z"/>
<path d="M3250 5534 c-398 -47 -658 -200 -858 -504 -97 -146 -166 -356 -178
-540 -5 -75 -3 -89 15 -118 40 -63 78 -72 319 -72 238 0 257 4 309 63 32 37
38 53 68 182 33 142 122 268 226 321 81 41 143 54 259 54 161 0 265 -37 353
-125 54 -53 113 -167 127 -244 25 -136 5 -297 -52 -403 -73 -137 -200 -201
-450 -228 -129 -14 -157 -22 -196 -63 -46 -48 -52 -75 -52 -228 0 -156 6 -175
64 -227 39 -34 49 -36 209 -52 204 -21 329 -66 427 -157 106 -98 153 -224 152
-408 0 -196 -47 -323 -157 -431 -173 -170 -455 -211 -681 -99 -135 66 -225
194 -265 376 -26 122 -47 160 -109 198 -33 20 -48 21 -283 21 -265 0 -278 -2
-325 -52 -37 -41 -42 -78 -26 -190 65 -435 256 -721 593 -888 182 -90 364
-130 636 -137 340 -10 555 31 785 148 306 156 535 479 606 855 25 136 15 406
-20 531 -59 214 -168 366 -370 520 -104 80 -107 92 -39 155 131 119 204 212
253 322 134 301 85 726 -113 984 -167 217 -409 356 -727 417 -82 16 -417 29
-500 19z"/>
<path d="M6496 5506 c-56 -21 -67 -35 -93 -127 -60 -206 -165 -339 -338 -423
-102 -51 -200 -74 -380 -92 -189 -19 -231 -34 -272 -95 -25 -38 -28 -52 -31
-145 -6 -141 2 -187 40 -230 57 -64 54 -64 403 -64 261 0 322 -3 352 -15 50
-21 72 -42 94 -90 18 -38 19 -97 19 -1233 0 -1007 2 -1197 14 -1220 21 -41 68
-81 107 -92 44 -13 484 -13 528 0 39 11 86 51 107 92 12 23 14 297 14 1823 0
2001 6 1837 -68 1893 l-35 27 -211 2 c-162 2 -220 -1 -250 -11z"/>
</g>
</svg>
