<?xml version="1.0" standalone="no"?>
<!DOCTYPE svg PUBLIC "-//W3C//DTD SVG 20010904//EN"
 "http://www.w3.org/TR/2001/REC-SVG-20010904/DTD/svg10.dtd">
<svg version="1.0" xmlns="http://www.w3.org/2000/svg"
 width="225.000000pt" height="225.000000pt" viewBox="0 0 225.000000 225.000000"
 preserveAspectRatio="xMidYMid meet">
<metadata>
Created by potrace 1.16, written by Peter Selinger 2001-2019
</metadata>
<g transform="translate(0.000000,225.000000) scale(0.100000,-0.100000)"
fill="#000000" stroke="none">
<path d="M1669 2027 c-28 -19 -59 -61 -72 -100 -1 -5 -38 1 -82 12 -62 16 -82
18 -91 8 -15 -16 -68 -233 -60 -246 4 -6 27 -8 55 -4 44 5 52 3 75 -20 34 -34
34 -79 1 -112 -33 -34 -84 -34 -118 1 -15 15 -33 24 -40 21 -14 -5 -78 -234
-70 -253 2 -7 25 -17 51 -24 130 -31 122 -27 110 -60 -34 -98 63 -198 164
-170 42 12 86 59 95 101 3 16 8 29 12 29 3 0 38 -7 77 -16 39 -10 78 -15 86
-12 14 6 68 186 68 227 0 18 -6 21 -48 21 -39 0 -53 5 -72 25 -71 76 32 178
114 114 23 -18 30 -20 40 -8 17 18 70 224 62 238 -4 6 -24 15 -44 20 -20 5
-56 15 -79 21 l-42 11 5 47 c13 114 -105 191 -197 129z m122 -56 c33 -33 36
-60 13 -101 -26 -43 -13 -56 70 -76 42 -10 81 -21 87 -25 9 -5 7 -23 -6 -71
l-17 -64 -56 3 c-75 5 -113 -18 -137 -81 -17 -44 -17 -48 0 -92 18 -48 62 -84
103 -84 12 0 22 -5 22 -10 0 -9 -31 -131 -35 -137 -1 -2 -43 9 -93 23 -51 14
-97 22 -103 18 -6 -3 -8 -22 -5 -43 8 -46 -10 -81 -50 -97 -26 -11 -36 -10
-65 4 -48 24 -60 72 -30 113 37 49 26 61 -74 87 -50 13 -91 25 -92 26 -1 1 6
33 16 71 13 50 22 69 32 66 35 -11 106 -10 129 1 35 19 70 75 70 115 0 65 -56
133 -110 133 -15 0 -29 2 -32 5 -6 6 21 126 31 137 3 4 43 -2 88 -14 96 -24
117 -20 109 19 -7 35 12 74 44 90 38 19 59 16 91 -16z"/>
<path d="M635 1740 c-36 -23 -65 -74 -65 -112 l0 -28 -74 0 c-109 0 -106 3
-106 -106 l0 -94 -37 0 c-101 0 -167 -114 -116 -201 22 -37 94 -73 128 -65
l25 6 -7 -185 c-5 -164 -4 -185 10 -191 9 -3 26 1 39 10 53 37 128 2 128 -60
0 -47 -13 -69 -49 -83 -24 -11 -35 -10 -65 4 -63 30 -67 22 -64 -122 l3 -128
93 -3 92 -3 0 -40 c0 -104 89 -162 184 -121 52 24 76 62 76 122 l0 41 156 -3
156 -3 4 -39 c4 -47 25 -81 67 -106 85 -52 197 12 197 112 l0 37 93 3 92 3 3
93 3 92 32 0 c38 0 90 29 112 64 9 14 17 45 17 71 0 74 -44 122 -122 132 l-40
6 0 77 c0 43 -3 85 -6 94 -5 14 -28 16 -150 16 -125 0 -144 -2 -144 -16 0 -9
14 -29 30 -44 67 -63 7 -169 -80 -139 -36 13 -50 36 -50 83 0 27 7 40 31 59
21 16 30 30 26 41 -5 12 -27 16 -119 18 l-113 3 -3 53 -3 54 29 -7 c43 -9 107
20 132 60 57 92 -9 205 -120 205 l-40 0 0 94 c0 109 3 106 -106 106 -73 0 -74
0 -74 26 0 40 -30 94 -64 115 -40 25 -103 24 -141 -1z m129 -61 c28 -33 32
-59 15 -90 -20 -38 4 -49 102 -49 l89 0 0 -99 c0 -111 8 -129 50 -106 82 46
167 -38 114 -113 -25 -36 -59 -44 -101 -27 -57 24 -63 17 -63 -75 l0 -80 -64
0 -63 0 -6 41 c-6 44 -34 82 -79 105 -81 42 -188 -19 -188 -107 l0 -39 -65 0
-64 0 -3 78 -3 77 -30 -3 c-75 -7 -89 -5 -112 22 -31 36 -30 80 3 112 21 22
31 25 62 20 84 -14 77 -23 80 92 l3 102 88 0 c101 0 118 9 101 54 -15 42 -12
55 19 87 40 40 81 39 115 -2z m-7 -555 c23 -23 25 -31 19 -79 -7 -64 -6 -65
110 -65 l84 0 0 -70 0 -70 -36 0 c-58 0 -100 -26 -125 -76 -25 -54 -20 -99 17
-143 27 -32 80 -54 116 -49 22 3 23 0 26 -69 l3 -72 -103 -3 c-115 -3 -106 4
-92 -81 11 -65 -48 -109 -111 -83 -38 16 -52 48 -41 94 18 70 21 67 -91 70
l-103 3 0 75 0 76 25 -6 c14 -4 43 -2 64 4 100 27 128 151 51 225 -23 22 -41
29 -85 33 l-55 4 0 69 0 69 84 0 c116 0 117 1 110 65 -6 48 -4 56 19 79 17 17
37 26 57 26 20 0 40 -9 57 -26z m403 -147 c0 -1 -4 -17 -10 -35 -13 -48 -2
-89 36 -127 44 -44 92 -52 147 -26 24 11 50 34 60 50 19 33 22 92 7 122 -10
18 -7 19 65 19 l75 0 0 -92 c0 -116 5 -126 57 -109 67 22 113 -10 113 -79 0
-34 -38 -80 -66 -80 -10 0 -33 5 -51 12 -47 17 -54 3 -51 -110 l3 -92 -91 0
c-95 0 -122 -11 -104 -40 28 -44 -3 -113 -56 -126 -58 -15 -112 49 -92 108 18
52 8 58 -92 58 l-90 0 0 99 c0 116 -9 132 -60 106 -42 -22 -85 -5 -107 40 -13
28 -13 36 -2 61 8 15 26 35 41 44 25 14 30 13 64 -5 35 -19 36 -19 50 0 10 13
14 48 14 112 l0 93 70 0 c39 0 70 -1 70 -3z"/>
</g>
</svg>
